<svg id="Group_238" data-name="Group 238" xmlns="http://www.w3.org/2000/svg" xmlns:xlink="http://www.w3.org/1999/xlink" width="25.241" height="27.936" viewBox="0 0 25.241 27.936">
  <defs>
    <clipPath id="clip-path">
      <rect id="Rectangle_156" data-name="Rectangle 156" width="25.241" height="27.936" fill="none"/>
    </clipPath>
  </defs>
  <g id="Group_237" data-name="Group 237" clip-path="url(#clip-path)">
    <path id="Path_228" data-name="Path 228" d="M85.5,6.272a6.284,6.284,0,1,1,6.291,6.32A6.3,6.3,0,0,1,85.5,6.272m6.281,4.734A4.719,4.719,0,1,0,87.064,6.3a4.734,4.734,0,0,0,4.715,4.707" transform="translate(-79.196 0)"/>
    <path id="Path_229" data-name="Path 229" d="M196.316,240.529a4.481,4.481,0,0,1-.591-.174c-.628-.279-1.253-.563-1.868-.869a.533.533,0,0,0-.576.03c-.453.27-.91.535-1.378.778a1.463,1.463,0,0,1-1.6.018,1.58,1.58,0,0,1-.721-1.687c.1-.544.191-1.088.306-1.628a.613.613,0,0,0-.212-.674c-.384-.325-.737-.686-1.1-1.031a1.581,1.581,0,0,1-.49-1.706,1.433,1.433,0,0,1,1.323-1.006c.6-.077,1.191-.168,1.781-.283a.612.612,0,0,0,.375-.268c.284-.515.545-1.044.8-1.577a1.482,1.482,0,0,1,2.74-.015c.257.543.526,1.082.814,1.609a.57.57,0,0,0,.349.25c.59.115,1.186.2,1.779.293a1.522,1.522,0,0,1,.844,2.637c-.422.429-.859.844-1.27,1.284a.554.554,0,0,0-.123.408c.092.606.236,1.2.322,1.812a1.555,1.555,0,0,1-1.492,1.8m-2.728-9.386c-.065.11-.116.181-.152.259-.233.5-.463,1-.694,1.5a1.573,1.573,0,0,1-1.3.958c-.652.087-1.3.2-2.028.306.51.46.958.892,1.435,1.289a1.6,1.6,0,0,1,.561,1.68c-.124.609-.227,1.223-.349,1.892a10.827,10.827,0,0,0,1.17-.663,2.114,2.114,0,0,1,2.715,0,13.139,13.139,0,0,0,1.215.665c-.123-.637-.215-1.194-.34-1.743a1.661,1.661,0,0,1,.513-1.735c.468-.426.9-.892,1.393-1.386-.7-.11-1.323-.211-1.949-.308a1.668,1.668,0,0,1-1.307-.962c-.283-.571-.572-1.139-.882-1.757" transform="translate(-174.14 -212.609)"/>
    <path id="Path_230" data-name="Path 230" d="M.007,203.866A12.6,12.6,0,0,1,9.361,192.3a12.225,12.225,0,0,1,8.075.522,1.057,1.057,0,0,1,.574.547,1.029,1.029,0,0,1-.176.768.683.683,0,0,1-.805.182,21.446,21.446,0,0,0-2.477-.681,10.691,10.691,0,0,0-10.221,3.571,10.523,10.523,0,0,0-2.744,7.013c-.017.691-.243.988-.758,1.007a.718.718,0,0,1-.819-.7c-.021-.219,0-.442,0-.662" transform="translate(0 -177.709)"/>
  </g>
</svg>
